#!OML:ASF I:\Actors\actors\Patient Classification 2\Patient 1\Session 1\actor1.ASF
:FULLY-SPECIFIED
:DEGREES
664
root -0.951917 18.7228 5.13628 7.11399 -1.70377 -0.687862
lowerback 23.7348 0.999664 -0.347852
upperback 8.35747 1.27885 1.40321
thorax -4.07537 0.596577 1.37396
lowerneck -17.9243 -2.01927 -1.88315
upperneck 21.5511 -2.78443 2.11851
head 9.8648 -1.18803 0.676156
rclavicle -5.56597e-015 -3.18055e-015
rhumerus -11.2046 38.5132 -92.1152
rradius 131.737
rwrist -7.11382
rhand -30.8239 -30.4858
rfingers 7.12502
rthumb -4.11305 -60.4258
lclavicle -5.56597e-015 -3.18055e-015
lhumerus -10.5933 -53.5678 103.608
lradius 124.307
lwrist 24.6418
lhand -21.3813 -36.6743
lfingers 7.12502
lthumb 5.00617 -6.75341
rfemur -7.60776 2.3999 15.3799
rtibia 11.8149
rfoot -18.2466 -10.9066
rtoes -15.2729
lfemur -18.5198 -0.5246 -12.4075
ltibia 28.623
lfoot -16.3371 7.90509
ltoes -57.4806
665
root -1.03678 18.7272 5.12821 7.06941 -1.78588 -0.594784
lowerback 23.8161 1.13666 -0.439346
upperback 8.37147 1.43457 1.41647
thorax -4.10701 0.671269 1.39835
lowerneck -17.9237 -2.02142 -1.90339
upperneck 21.6356 -2.74595 1.97105
head 9.89181 -1.18851 0.633257
rclavicle 8.94531e-015 -3.18055e-015
rhumerus -12.5162 39.5023 -93.0416
rradius 131.756
rwrist -6.25871
rhand -31.1425 -30.4276
rfingers 7.12502
rthumb -4.42076 -60.3615
lclavicle 8.94531e-015 -3.18055e-015
lhumerus -8.90949 -52.9447 102.324
lradius 124.251
lwrist 24.9437
lhand -21.5223 -36.1593
lfingers 7.12502
lthumb 4.87005 -6.23526
rfemur -7.80448 2.22341 15.5752
rtibia 12.2144
rfoot -18.2223 -10.572
rtoes -15.0247
lfemur -18.2996 -0.611101 -12.2081
ltibia 28.3008
lfoot -16.1568 8.13067
ltoes -57.6133
666
root -1.1224 18.7317 5.12193 7.04736 -1.67563 -0.518171
lowerback 23.8954 1.16433 -0.530935
upperback 8.36339 1.45391 1.46952
thorax -4.15898 0.67954 1.50181
lowerneck -17.9449 -1.94589 -1.87714
upperneck 21.7019 -2.61409 1.82992
head 9.91393 -1.1417 0.597428
rclavicle -1.25234e-014 -3.97569e-015
rhumerus -14.3431 40.8643 -94.4453
rradius 131.976
rwrist -5.97887
rhand -31.1998 -30.9881
rfingers 7.12502
rthumb -4.47605 -60.9208
lclavicle -1.25234e-014 -3.97569e-015
lhumerus -7.42173 -52.2434 101.087
lradius 124.231
lwrist 24.5803
lhand -21.8997 -36.1863
lfingers 7.12502
lthumb 4.50563 -6.25423
rfemur -7.92943 1.99107 15.804
rtibia 12.5112
rfoot -18.2805 -10.3151
rtoes -14.3853
lfemur -18.1249 -0.876941 -11.9667
ltibia 27.973
lfoot -16.0343 8.26776
ltoes -57.8118
667
root -1.20729 18.7359 5.11724 7.03061 -1.34393 -0.496179
lowerback 24.0114 1.10073 -0.556949
upperback 8.34028 1.37725 1.60115
thorax -4.24287 0.641426 1.67818
lowerneck -17.9663 -1.86157 -1.85561
upperneck 21.7312 -2.45907 1.65338
head 9.92233 -1.08907 0.553141
rclavicle -6.55989e-015 -1.15295e-014
rhumerus -16.475 41.9412 -96.1972
rradius 132.288
rwrist -5.62661
rhand -31.0914 -30.9577
rfingers 7.12502
rthumb -4.37139 -60.8925
lclavicle -6.55989e-015 -1.15295e-014
lhumerus -6.34162 -51.5827 100.17
lradius 124.264
lwrist 24.0701
lhand -22.4121 -36.4459
lfingers 7.12502
lthumb 4.01085 -6.50395
rfemur -7.99072 1.6998 16.1089
rtibia 12.7539
rfoot -18.473 -10.1923
rtoes -13.9512
lfemur -17.9947 -1.35574 -11.6469
ltibia 27.6555
lfoot -15.9616 8.38415
ltoes -58.0015
668
root -1.28925 18.737 5.11379 7.00737 -0.776061 -0.540026
lowerback 24.1552 0.928301 -0.493544
upperback 8.31889 1.18831 1.81715
thorax -4.33388 0.549071 1.92565
lowerneck -18.0231 -1.77744 -1.85169
upperneck 21.7505 -2.28976 1.44213
head 9.93364 -1.03537 0.501304
rclavicle 3.57812e-015 1.98785e-015
rhumerus -18.7272 42.5421 -98.1055
rradius 132.711
rwrist -5.11131
rhand -31.1339 -29.4636
rfingers 7.12502
rthumb -4.41242 -59.3976
lclavicle 3.57812e-015 1.98785e-015
lhumerus -5.47039 -50.9321 99.4317
lradius 124.335
lwrist 24.0131
lhand -22.4985 -36.5532
lfingers 7.12502
lthumb 3.92737 -6.60965
rfemur -8.01603 1.3179 16.4965
rtibia 13.0291
rfoot -18.7438 -10.1294
rtoes -13.5448
lfemur -17.9354 -1.94267 -11.2509
ltibia 27.3737
lfoot -15.8129 8.46576
ltoes -58.197
